<?xml version="1.0" encoding="UTF-8" standalone="no"?>
<!-- Created with Inkscape (http://www.inkscape.org/) -->
<svg
   xmlns:dc="http://purl.org/dc/elements/1.1/"
   xmlns:cc="http://creativecommons.org/ns#"
   xmlns:rdf="http://www.w3.org/1999/02/22-rdf-syntax-ns#"
   xmlns:svg="http://www.w3.org/2000/svg"
   xmlns="http://www.w3.org/2000/svg"
   xmlns:sodipodi="http://sodipodi.sourceforge.net/DTD/sodipodi-0.dtd"
   xmlns:inkscape="http://www.inkscape.org/namespaces/inkscape"
   width="470"
   height="452"
   id="svg2"
   sodipodi:version="0.32"
   inkscape:version="0.46"
   sodipodi:docname="国家高速.svg"
   inkscape:output_extension="org.inkscape.output.svg.inkscape"
   version="1.0">
  <defs
     id="defs4" />
  <sodipodi:namedview
     id="base"
     pagecolor="#ffffff"
     bordercolor="#666666"
     borderopacity="1.0"
     gridtolerance="10000"
     guidetolerance="10"
     objecttolerance="10"
     inkscape:pageopacity="0.0"
     inkscape:pageshadow="2"
     inkscape:zoom="1.1659292"
     inkscape:cx="349.66633"
     inkscape:cy="235.17498"
     inkscape:document-units="px"
     inkscape:current-layer="layer1"
     showgrid="false"
     inkscape:window-width="1280"
     inkscape:window-height="747"
     inkscape:window-x="-8"
     inkscape:window-y="-8"
     showguides="true"
     inkscape:guide-bbox="true" />
  <metadata
     id="metadata7">
    <rdf:RDF>
      <cc:Work
         rdf:about="">
        <dc:format>image/svg+xml</dc:format>
        <dc:type
           rdf:resource="http://purl.org/dc/dcmitype/StillImage" />
      </cc:Work>
    </rdf:RDF>
  </metadata>
  <g
     inkscape:label="Layer 1"
     inkscape:groupmode="layer"
     id="layer1">
    <rect
       style="opacity:1;fill:#006400;fill-opacity:1;fill-rule:nonzero;stroke:none;stroke-width:4;stroke-linecap:butt;stroke-linejoin:miter;marker:none;marker-start:none;marker-mid:none;marker-end:none;stroke-miterlimit:4;stroke-dasharray:none;stroke-dashoffset:0;stroke-opacity:1;visibility:visible;display:inline;overflow:visible;enable-background:accumulate"
       id="rect2498"
       width="470"
       height="452"
       x="0"
       y="0"
       ry="32.476368"
       rx="33.888386" />
    <rect
       style="opacity:1;fill:#ffffff;fill-opacity:1;fill-rule:nonzero;stroke:none;stroke-width:4;stroke-linecap:butt;stroke-linejoin:miter;marker:none;marker-start:none;marker-mid:none;marker-end:none;stroke-miterlimit:4;stroke-dasharray:none;stroke-dashoffset:0;stroke-opacity:1;visibility:visible;display:inline;overflow:visible;enable-background:accumulate"
       id="rect2504"
       width="448.15591"
       height="430.84552"
       x="10.569709"
       y="9.1669312"
       rx="42.360481"
       ry="31.770361" />
    <rect
       style="opacity:1;fill:#006400;fill-opacity:1;fill-rule:nonzero;stroke:none;stroke-width:4;stroke-linecap:butt;stroke-linejoin:miter;marker:none;marker-start:none;marker-mid:none;marker-end:none;stroke-miterlimit:4;stroke-dasharray:none;stroke-dashoffset:0;stroke-opacity:1;visibility:visible;display:inline;overflow:visible;enable-background:accumulate"
       id="rect2502"
       width="427.01645"
       height="354.68951"
       x="21.491753"
       y="74.393158"
       ry="23.298264"
       rx="23.298265" />
    <path
       style="opacity:1;fill:#c00000;fill-opacity:1;fill-rule:nonzero;stroke:none;stroke-width:4;stroke-linecap:butt;stroke-linejoin:miter;marker:none;marker-start:none;marker-mid:none;marker-end:none;stroke-miterlimit:4;stroke-dasharray:none;stroke-dashoffset:0;stroke-opacity:1;visibility:visible;display:inline;overflow:visible;enable-background:accumulate"
       d="M 21.616099,68.790497 L 21.730969,38.932097 L 22.535159,36.287787 C 25.001889,28.176747 31.755939,21.861567 39.866969,20.082147 C 42.194689,19.571487 428.13769,19.588197 430.63491,20.099067 C 431.66264,20.309307 433.99685,21.197937 435.82208,22.073777 C 440.32814,24.236007 443.8984,27.734997 446.02079,32.068827 C 448.65952,37.457007 448.54746,35.843487 448.54746,68.446107 L 448.54746,97.635677 L 414.07936,97.633667 C 374.67033,97.631367 125.35188,98.234777 63.036509,98.483277 L 21.501239,98.648907 L 21.616099,68.790497 z"
       id="path2522" />
    <g
       id="g3833">
      <path
         id="path2452"
         d="M 283.18451,74.463454 C 282.99887,74.057839 282.47339,72.864474 282.01675,71.811528 L 281.1865,69.897082 L 281.16177,70.952126 L 281.13704,72.007179 L 278.62945,72.007179 L 276.12185,72.007179 L 276.12185,71.213887 L 276.12185,70.420594 L 272.42245,70.420594 L 268.72304,70.420594 L 268.72304,71.213887 L 268.72304,72.007179 L 266.21274,72.007179 L 263.70243,72.007179 L 263.70243,66.674502 L 263.70243,61.341815 L 270.6388,61.341585 C 274.45382,61.341455 278.37782,61.315327 279.35882,61.283526 L 281.14246,61.225686 L 281.14246,65.384175 L 281.14246,69.542665 L 283.01418,69.518884 L 284.8859,69.495093 L 284.91387,67.2915 C 284.92926,66.079528 284.91478,63.848398 284.88171,62.333425 L 284.82157,59.578944 L 272.54442,59.578944 L 260.26727,59.578944 L 260.26727,67.027072 L 260.26727,74.4752 L 257.80101,74.4752 L 255.33474,74.4752 L 255.33474,65.308278 L 255.33474,56.141346 L 272.46914,56.141346 L 289.60354,56.141346 L 289.57887,64.184448 L 289.5542,72.227541 L 289.34909,72.644273 C 289.05843,73.234852 288.42354,73.765376 287.37659,74.292493 C 286.42328,74.772467 285.51148,75.014372 284.18771,75.138501 L 283.52204,75.200935 L 283.18451,74.463454 z M 276.16936,66.360375 C 276.2012,66.308798 276.19943,65.951823 276.16539,65.567082 L 276.10351,64.867555 L 272.36924,64.867555 L 268.63496,64.867555 L 268.63496,65.660848 L 268.63496,66.454141 L 272.3732,66.454141 C 274.91978,66.454141 276.12991,66.424247 276.16936,66.360375 L 276.16936,66.360375 z"
         style="fill:#ffffff;fill-opacity:1;fill-rule:nonzero;stroke:none;stroke-width:4;stroke-linecap:butt;stroke-linejoin:miter;marker:none;marker-start:none;marker-mid:none;marker-end:none;stroke-miterlimit:4;stroke-dasharray:none;stroke-dashoffset:0;stroke-opacity:1;visibility:visible;display:inline;overflow:visible;enable-background:accumulate" />
      <path
         id="path2454"
         d="M 260.79575,49.706872 L 260.79575,45.387839 L 272.29032,45.387839 L 283.78489,45.387839 L 283.78489,49.706872 L 283.78489,54.025906 L 272.29032,54.025906 L 260.79575,54.025906 L 260.79575,49.706872 z M 278.83269,49.684839 L 278.85707,48.384714 L 272.29268,48.384714 L 265.72829,48.384714 L 265.72829,49.648104 C 265.72829,50.342976 265.75497,50.938191 265.78758,50.970821 C 265.82018,51.003451 268.76319,51.019981 272.32759,51.007556 L 278.80831,50.984954 L 278.83269,49.684839 z"
         style="fill:#ffffff;fill-opacity:1;fill-rule:nonzero;stroke:none;stroke-width:4;stroke-linecap:butt;stroke-linejoin:miter;marker:none;marker-start:none;marker-mid:none;marker-end:none;stroke-miterlimit:4;stroke-dasharray:none;stroke-dashoffset:0;stroke-opacity:1;visibility:visible;display:inline;overflow:visible;enable-background:accumulate" />
      <path
         id="path2456"
         d="M 253.83737,41.465452 L 253.83737,39.746647 L 261.63253,39.746647 C 265.91987,39.746647 269.42769,39.713528 269.42769,39.673037 C 269.42769,39.632547 269.1649,39.034815 268.8437,38.344737 C 268.51742,37.643742 268.29392,37.058565 268.33724,37.018704 C 268.37987,36.979472 269.2075,36.740213 270.17639,36.487032 C 271.90963,36.034124 273.81964,35.498468 274.11376,35.382819 C 274.23799,35.333968 274.45306,35.702689 275.36926,37.535264 L 276.47485,39.746647 L 283.8733,39.746647 L 291.27177,39.746647 L 291.27177,41.465452 L 291.27177,43.184246 L 272.55456,43.184246 L 253.83737,43.184246 L 253.83737,41.465452 z"
         style="fill:#ffffff;fill-opacity:1;fill-rule:nonzero;stroke:none;stroke-width:4;stroke-linecap:butt;stroke-linejoin:miter;marker:none;marker-start:none;marker-mid:none;marker-end:none;stroke-miterlimit:4;stroke-dasharray:none;stroke-dashoffset:0;stroke-opacity:1;visibility:visible;display:inline;overflow:visible;enable-background:accumulate" />
    </g>
    <g
       id="g3838">
      <path
         id="path2458"
         d="M 329.70305,72.463183 C 329.00415,71.460955 328.40872,70.599855 328.37986,70.549617 C 328.35079,70.499008 329.30673,69.832581 330.52298,69.055549 L 332.71857,67.652819 L 332.71638,67.251808 C 332.71517,67.031247 332.65663,64.312253 332.58628,61.209596 C 332.51593,58.106949 332.45746,55.280845 332.45635,54.929374 L 332.45433,54.290333 L 331.05795,54.290333 C 330.28994,54.290333 329.41795,54.264854 329.12017,54.233702 L 328.57877,54.177081 L 328.57877,53.542635 C 328.57877,53.19369 328.60481,52.247394 328.63664,51.439749 L 328.69451,49.9713 L 333.17281,49.9713 L 337.6511,49.9713 L 337.6511,57.809122 L 337.6511,65.646955 L 338.68754,66.56103 C 339.90422,67.634082 340.2707,67.896052 341.21839,68.370164 C 342.95713,69.240034 345.27301,69.761308 348.83739,70.085083 C 349.55803,70.150543 351.43182,70.190704 353.59376,70.187029 C 357.27956,70.180767 360.47929,70.018924 364.64792,69.627931 C 365.66525,69.532507 366.52683,69.453663 366.56252,69.452724 C 366.59821,69.451785 366.47328,69.758422 366.2849,70.134133 C 365.8584,70.984676 365.54698,71.994115 365.34513,73.180219 L 365.18952,74.094664 L 362.15179,74.152723 C 355.37913,74.282145 348.50239,74.193384 345.71051,73.940512 C 343.3608,73.727681 341.30853,73.30267 339.77753,72.71184 C 339.37891,72.558008 338.29691,72.05626 337.37308,71.59686 L 335.6934,70.761578 L 334.36013,71.768361 C 333.62682,72.322095 332.56491,73.114959 332.00031,73.530282 L 330.97376,74.285401 L 329.70305,72.463183 z"
         style="fill:#ffffff;fill-opacity:1;fill-rule:nonzero;stroke:none;stroke-width:4;stroke-linecap:butt;stroke-linejoin:miter;marker:none;marker-start:none;marker-mid:none;marker-end:none;stroke-miterlimit:4;stroke-dasharray:none;stroke-dashoffset:0;stroke-opacity:1;visibility:visible;display:inline;overflow:visible;enable-background:accumulate" />
      <path
         id="path2460"
         d="M 334.52423,44.325784 C 333.78374,43.55004 332.52317,42.486786 331.2376,41.553594 C 330.49172,41.012164 329.91906,40.537014 329.94078,40.477576 C 329.96217,40.419038 330.54637,39.681657 331.23901,38.838964 L 332.49837,37.306783 L 334.08382,38.508717 C 336.75102,40.530701 337.37637,41.021743 337.38172,41.098279 C 337.38867,41.197688 335.49069,43.988685 335.14879,44.381825 L 334.87655,44.694884 L 334.52423,44.325784 z"
         style="fill:#ffffff;fill-opacity:1;fill-rule:nonzero;stroke:none;stroke-width:4;stroke-linecap:butt;stroke-linejoin:miter;marker:none;marker-start:none;marker-mid:none;marker-end:none;stroke-miterlimit:4;stroke-dasharray:none;stroke-dashoffset:0;stroke-opacity:1;visibility:visible;display:inline;overflow:visible;enable-background:accumulate" />
      <path
         id="path2462"
         d="M 350.24668,65.440487 C 350.24668,63.574053 350.2215,62.046965 350.19072,62.046965 C 350.15994,62.046965 349.81311,62.33817 349.42,62.694086 C 348.30311,63.705313 347.29554,64.490625 346.19496,65.207691 C 344.5702,66.26628 342.93692,67.159291 342.62554,67.159291 C 342.56402,67.159291 341.89415,66.277017 341.13694,65.198682 C 339.87456,63.400924 339.77322,63.228544 339.91677,63.123372 C 340.00288,63.060289 340.64713,62.709637 341.34844,62.344132 C 342.62835,61.677086 344.07154,60.667057 345.79606,59.231458 C 346.57677,58.58154 347.78042,57.40127 347.78042,57.285641 C 347.78042,57.21213 345.06792,57.110924 343.098,57.110924 L 341.61475,57.110924 L 341.61475,51.822313 L 341.61475,46.533701 L 345.88667,46.533701 L 350.1586,46.533701 L 350.1586,45.475981 L 350.1586,44.418261 L 345.13799,44.418261 L 340.11737,44.418261 L 340.11737,42.170602 L 340.11737,39.922942 L 342.78952,39.922942 C 344.25922,39.922942 346.54263,39.896625 347.86379,39.864474 L 350.26588,39.806005 L 350.23242,38.586392 L 350.19894,37.366779 L 352.68908,37.366779 L 355.17922,37.366779 L 355.17922,38.658205 L 355.17922,39.94962 L 360.68428,39.885538 L 366.18933,39.821456 L 366.18933,42.119854 L 366.18933,44.418261 L 363.48085,44.418411 C 361.99117,44.418501 359.55353,44.444729 358.06387,44.47671 L 355.35538,44.534849 L 355.35538,45.490204 L 355.35538,46.445559 L 358.41619,46.445859 C 360.09964,46.446018 362.10127,46.472057 362.86428,46.503728 L 364.25155,46.561298 L 364.25155,51.836116 L 364.25155,57.110924 L 361.12468,57.110924 C 359.4049,57.110924 357.9978,57.145422 357.9978,57.18759 C 357.9978,57.320958 360.04977,59.482462 360.95763,60.305398 C 362.48714,61.691848 363.51443,62.407225 365.2865,63.319913 C 365.73462,63.550701 366.10125,63.777984 366.10125,63.824967 C 366.10125,63.871959 365.46217,64.718058 364.68107,65.705204 L 363.26089,67.500005 L 362.7653,67.281492 C 360.92766,66.47125 358.09534,64.458524 356.0504,62.50972 C 355.6816,62.158249 355.35452,61.87068 355.32357,61.87068 C 355.29263,61.87068 355.26722,62.396229 355.26712,63.038576 C 355.26702,63.680922 355.24084,65.247672 355.20894,66.52025 L 355.15094,68.834019 L 352.69881,68.834019 L 350.24668,68.834019 L 350.24668,65.440487 z M 350.1586,51.822313 L 350.1586,50.500165 L 348.13274,50.500165 L 346.10688,50.500165 L 346.10688,51.822313 L 346.10688,53.14447 L 348.13274,53.14447 L 350.1586,53.14447 L 350.1586,51.822313 z M 359.49518,51.73417 L 359.49518,50.412022 L 357.42528,50.412022 L 355.35538,50.412022 L 355.35538,51.73417 L 355.35538,53.056328 L 357.42528,53.056328 L 359.49518,53.056328 L 359.49518,51.73417 z"
         style="fill:#ffffff;fill-opacity:1;fill-rule:nonzero;stroke:none;stroke-width:4;stroke-linecap:butt;stroke-linejoin:miter;marker:none;marker-start:none;marker-mid:none;marker-end:none;stroke-miterlimit:4;stroke-dasharray:none;stroke-dashoffset:0;stroke-opacity:1;visibility:visible;display:inline;overflow:visible;enable-background:accumulate" />
    </g>
    <g
       id="g3857">
      <path
         id="path2524"
         d="M 105.7506,74.191597 C 105.49224,73.933033 105.28084,66.000116 105.28084,56.562884 L 105.28084,39.404277 L 122.54471,39.404277 L 139.80858,39.404277 L 139.80858,57.03298 L 139.80858,74.661684 L 138.04697,74.661684 C 136.75511,74.661684 136.28535,74.285613 136.28535,73.251394 C 136.28535,71.890883 135.81557,71.841094 122.97922,71.841094 C 110.26571,71.841094 109.65668,71.903897 109.30456,73.251394 C 108.95073,74.605423 106.74679,75.188472 105.75061,74.191587 L 105.7506,74.191597 z M 135.27871,67.308011 C 136.06705,66.519093 136.28535,63.859476 136.28535,55.043347 C 136.28535,45.428671 136.1227,43.7236 135.17074,43.358035 C 134.55771,43.122623 128.53297,42.930017 121.78243,42.930017 L 109.50873,42.930017 L 109.50873,55.152593 C 109.50873,61.875006 109.72013,67.586701 109.9785,67.845256 C 110.23687,68.103801 115.80862,68.315353 122.36017,68.315353 C 131.74428,68.315353 134.48568,68.101584 135.2787,67.308001 L 135.27871,67.308011 z"
         style="fill:#ffffff;fill-opacity:1;fill-rule:nonzero;stroke:none;stroke-width:4;stroke-linecap:butt;stroke-linejoin:miter;marker:none;marker-start:none;marker-mid:none;marker-end:none;stroke-miterlimit:4;stroke-dasharray:none;stroke-dashoffset:0;stroke-opacity:1;visibility:visible;display:inline;overflow:visible;enable-background:accumulate" />
      <path
         id="path2526"
         d="M 105.7506,74.191597 C 105.49224,73.933033 105.28084,66.000116 105.28084,56.562884 L 105.28084,39.404277 L 122.54471,39.404277 L 139.80858,39.404277 L 139.80858,57.03298 L 139.80858,74.661684 L 138.12916,74.661684 C 137.04232,74.661684 136.31967,74.164041 136.08117,73.251394 C 135.72981,71.906774 135.12003,71.841094 122.9878,71.841094 C 110.98413,71.841094 110.22022,71.921026 109.50873,73.251394 C 108.77555,74.622312 106.69993,75.141589 105.75061,74.191587 L 105.7506,74.191597 z M 135.28603,66.593992 C 136.60323,64.789792 136.73608,45.073434 135.43977,43.776196 C 134.84536,43.181351 130.86368,42.930017 122.03483,42.930017 L 109.47544,42.930017 L 109.66825,55.062663 L 109.86106,67.195329 L 111.62268,67.716423 C 112.59157,68.003034 118.08734,68.175713 123.8355,68.100155 C 133.27781,67.976047 134.38318,67.830644 135.28603,66.593992 z"
         style="fill:#ffffff;fill-opacity:1;fill-rule:nonzero;stroke:none;stroke-width:4;stroke-linecap:butt;stroke-linejoin:miter;marker:none;marker-start:none;marker-mid:none;marker-end:none;stroke-miterlimit:4;stroke-dasharray:none;stroke-dashoffset:0;stroke-opacity:1;visibility:visible;display:inline;overflow:visible;enable-background:accumulate" />
      <path
         sodipodi:nodetypes="cccccsscccsccc"
         id="path2528"
         d="M 104.75408,74.877191 L 104.78258,38.905665 L 140.6494,38.874503 L 140.6494,74.91099 L 134.6837,74.879828 C 134.64423,74.879828 134.66151,72.885091 134.65042,72.86915 C 134.63698,72.849834 111.42579,72.86895 110.71743,72.869629 C 110.70357,72.869649 110.75802,74.905357 110.73322,74.908343 L 104.75408,74.877191 z M 134.66368,66.874809 C 134.63964,66.895155 134.67915,43.855429 134.64587,43.855469 L 110.75438,43.883754 C 110.75438,43.883754 110.71272,66.892508 110.6693,66.874809 L 134.66368,66.874809 z"
         style="fill:#ffffff;fill-opacity:1;fill-rule:nonzero;stroke:none;stroke-width:4;stroke-linecap:butt;stroke-linejoin:miter;marker:none;marker-start:none;marker-mid:none;marker-end:none;stroke-miterlimit:4;stroke-dasharray:none;stroke-dashoffset:0;stroke-opacity:1;visibility:visible;display:inline;overflow:visible;enable-background:accumulate" />
      <path
         sodipodi:nodetypes="cssssssssscccssccsssssscc"
         id="path2534"
         d="M 111.70449,60.965166 C 111.70449,60.99399 114.48365,60.940945 119.73162,60.947837 C 119.76809,60.947887 119.75199,57.223398 119.75543,57.096543 C 119.7572,57.030903 119.00209,57.038094 113.82955,57.045875 C 113.79735,57.045915 113.8066,55.181988 113.7989,52.201412 C 113.79886,52.184822 117.30302,52.14526 119.72526,52.131867 C 119.78555,52.131527 119.72418,51.947422 119.72901,50.21009 C 119.72901,50.208952 115.01204,50.233781 112.7517,50.242361 C 112.68861,50.242601 112.72733,47.128428 112.69032,45.288112 C 112.68978,45.261095 132.73097,45.287792 132.73097,45.304662 C 132.73097,46.098843 132.73367,48.59467 132.71692,50.240573 L 125.69609,50.21009 L 125.66495,52.166754 C 128.21854,52.190435 131.69879,52.141665 131.70086,52.20321 C 131.78244,54.631609 131.72666,57.047353 131.66422,57.047663 L 125.66495,57.076348 L 125.69609,60.901823 C 125.72723,60.96146 126.69497,60.921429 127.67903,60.947837 C 127.71184,60.948716 127.86817,61.095627 126.48031,59.554576 C 126.44802,59.518709 129.62575,57.815257 129.6311,57.827062 C 129.66406,57.899763 132.3986,60.745853 132.37226,60.828942 C 132.35142,60.894672 133.73113,60.804332 133.72995,60.870861 C 133.70149,62.514786 133.70707,64.918295 133.69634,64.918275 L 111.67335,64.883867 L 111.70449,60.965166 z"
         style="fill:#ffffff;fill-opacity:1;fill-rule:nonzero;stroke:none;stroke-width:4;stroke-linecap:butt;stroke-linejoin:miter;marker:none;marker-start:none;marker-mid:none;marker-end:none;stroke-miterlimit:4;stroke-dasharray:none;stroke-dashoffset:0;stroke-opacity:1;visibility:visible;display:inline;overflow:visible;enable-background:accumulate" />
    </g>
    <g
       id="g3851">
      <path
         sodipodi:nodetypes="cscsssssssssssccccssssssssssss"
         id="path2530"
         d="M 188.71755,68.025806 C 188.52405,68.06378 192.1447,69.569204 192.22063,69.593434 C 195.97913,70.792342 197.50162,66.999048 196.66484,64.306641 C 196.66484,64.306641 190.52447,69.625156 181.25068,72.830617 C 181.18159,72.854498 177.40539,68.741703 177.55128,68.711999 C 190.11122,66.155167 194.78544,60.14133 194.79361,60.159947 C 196.59623,64.264153 194.19124,59.170334 194.19319,59.172422 C 194.21754,59.19832 188.38556,64.298341 181.79906,64.968943 C 181.77621,64.971271 178.65815,60.968182 178.76446,60.948007 C 189.84142,58.84548 192.28366,55.862028 192.39292,55.74547 C 192.43578,55.699736 192.24832,54.28626 192.13468,54.36004 C 192.03478,54.424891 189.67802,56.676166 181.42093,58.046634 C 181.36725,58.055544 177.89055,53.802629 177.9381,53.798285 C 188.82411,52.799772 190.39785,49.942706 190.36705,49.893356 C 190.34976,49.86566 184.50967,49.981499 184.55371,49.937423 L 184.50967,45.882827 L 208.68789,45.838751 L 208.6879,49.937433 C 208.51173,49.875019 200.8248,49.91468 200.7385,49.893356 C 200.64706,49.870774 196.93621,51.977934 196.97167,52.102253 C 198.38956,57.073102 199.4977,57.294751 199.5346,57.341484 C 199.53794,57.345699 200.51292,56.914884 206.34658,52.26881 C 206.3692,52.250792 210.40905,54.780647 210.45184,54.870757 C 210.45693,54.881474 203.23668,59.041371 203.18284,60.828562 C 203.13672,62.359336 203.50294,62.794335 203.53516,62.83152 C 203.76315,63.094659 214.15569,66.934976 214.17686,66.977824 C 214.21594,67.056857 212.11079,71.611144 212.06822,71.582958 C 211.99619,71.535267 201.57254,65.909816 201.57578,65.933028 C 202.90986,75.475472 191.99739,74.112544 191.75017,73.658657 C 189.78975,70.059396 188.7542,68.018615 188.71755,68.025806 z"
         style="fill:#ffffff;fill-opacity:1;fill-rule:nonzero;stroke:none;stroke-width:4;stroke-linecap:butt;stroke-linejoin:miter;marker:none;marker-start:none;marker-mid:none;marker-end:none;stroke-miterlimit:4;stroke-dasharray:none;stroke-dashoffset:0;stroke-opacity:1;visibility:visible;display:inline;overflow:visible;enable-background:accumulate" />
      <path
         sodipodi:nodetypes="ccssscccccccc"
         id="path2402"
         d="M 178.5948,39.904826 L 182.41311,39.897565 C 187.48975,39.887917 193.48982,39.820739 193.53557,39.773037 C 193.55578,39.751973 193.35864,39.219072 193.09748,38.588821 C 192.48542,37.111792 192.49327,37.149576 192.71106,37.094713 L 197.25718,35.949389 L 199.03778,39.96715 L 207.4388,39.904826 L 214.53188,39.904826 L 214.53188,41.587654 L 214.53188,43.88749 L 178.63883,44.063775 L 178.5948,39.904826 z"
         style="fill:#ffffff;fill-opacity:1;fill-rule:nonzero;stroke:none;stroke-width:4;stroke-linecap:butt;stroke-linejoin:miter;marker:none;marker-start:none;marker-mid:none;marker-end:none;stroke-miterlimit:4;stroke-dasharray:none;stroke-dashoffset:0;stroke-opacity:1;visibility:visible;display:inline;overflow:visible;enable-background:accumulate" />
      <rect
         ry="2.0281293"
         rx="0"
         y="42.912449"
         x="178.58778"
         height="6.9650526"
         width="4.9203997"
         id="rect2404"
         style="fill:#ffffff;fill-opacity:1;fill-rule:nonzero;stroke:none;stroke-width:4;stroke-linecap:butt;stroke-linejoin:miter;marker:none;marker-start:none;marker-mid:none;marker-end:none;stroke-miterlimit:4;stroke-dasharray:none;stroke-dashoffset:0;stroke-opacity:1;visibility:visible;display:inline;overflow:visible;enable-background:accumulate" />
      <rect
         style="fill:#ffffff;fill-opacity:1;fill-rule:nonzero;stroke:none;stroke-width:4;stroke-linecap:butt;stroke-linejoin:miter;marker:none;marker-start:none;marker-mid:none;marker-end:none;stroke-miterlimit:4;stroke-dasharray:none;stroke-dashoffset:0;stroke-opacity:1;visibility:visible;display:inline;overflow:visible;enable-background:accumulate"
         id="rect2406"
         width="4.9203997"
         height="9.3817835"
         x="209.59274"
         y="40.510227"
         rx="0"
         ry="2.0281293" />
    </g>
  </g>
</svg>
