<?xml version="1.0" encoding="UTF-8"?>
<svg xmlns="http://www.w3.org/2000/svg" xmlns:ns1="http://sodipodi.sourceforge.net/DTD/sodipodi-0.dtd" viewBox="0 0 203.58669 168.34067" height="168.34067" width="203.58669" id="svg1509" version="1.1">
  <defs id="defs1513" />
  <ns1:namedview showgrid="false" id="namedview1511" guidetolerance="10" gridtolerance="10" objecttolerance="10" borderopacity="1" bordercolor="#666666" pagecolor="#ffffff" />
  <g transform="translate(-2.958,-6.1585788)" id="g1517">
    <path style="color:#000000;font-style:normal;font-variant:normal;font-weight:normal;font-stretch:normal;font-size:medium;line-height:normal;font-family:sans-serif;font-variant-ligatures:normal;font-variant-position:normal;font-variant-caps:normal;font-variant-numeric:normal;font-variant-alternates:normal;font-variant-east-asian:normal;font-feature-settings:normal;font-variation-settings:normal;text-indent:0;text-align:start;text-decoration:none;text-decoration-line:none;text-decoration-style:solid;text-decoration-color:#000000;letter-spacing:normal;word-spacing:normal;text-transform:none;writing-mode:lr-tb;direction:ltr;text-orientation:mixed;dominant-baseline:auto;baseline-shift:baseline;text-anchor:start;white-space:normal;shape-padding:0;shape-margin:0;inline-size:0;clip-rule:nonzero;display:inline;overflow:visible;visibility:visible;opacity:1;isolation:auto;mix-blend-mode:normal;color-interpolation:sRGB;color-interpolation-filters:linearRGB;solid-color:#000000;solid-opacity:1;vector-effect:none;fill:#ffffff;fill-opacity:1;fill-rule:nonzero;stroke:none;stroke-width:2.21205;stroke-linecap:butt;stroke-linejoin:miter;stroke-miterlimit:4;stroke-dasharray:none;stroke-dashoffset:0;stroke-opacity:1;color-rendering:auto;image-rendering:auto;shape-rendering:auto;text-rendering:auto;enable-background:accumulate;stop-color:#000000;stop-opacity:1" d="M 11.816589,7.5146399 H 197.68548 c 4.15643,0 7.50257,3.3461461 7.50257,7.5025771 V 165.64152 c 0,4.15643 -3.34614,7.50258 -7.50257,7.50258 H 11.816589 c -4.1564234,0 -7.502568,-3.34615 -7.502568,-7.50258 V 15.017217 c 0,-4.156431 3.3461446,-7.5025771 7.502568,-7.5025771 z" id="path81" />
    <path d="m 11.8125,10.880859 c -2.282612,0 -4.1210938,1.851159 -4.1210938,4.142579 v 46.78125 H 201.81445 v -46.78125 c 0,-2.291421 -1.83849,-4.142579 -4.12109,-4.142579 z M 7.6914062,64.091797 V 115.41016 H 201.81445 V 64.091797 Z m 0,53.607423 v 47.94531 c 0,2.28446 1.8366438,4.12109 4.1210938,4.12109 h 185.88086 c 2.28445,0 4.12109,-1.83663 4.12109,-4.12109 v -47.94531 z" style="color:#000000;font-style:normal;font-variant:normal;font-weight:normal;font-stretch:normal;font-size:medium;line-height:normal;font-family:sans-serif;font-variant-ligatures:normal;font-variant-position:normal;font-variant-caps:normal;font-variant-numeric:normal;font-variant-alternates:normal;font-variant-east-asian:normal;font-feature-settings:normal;font-variation-settings:normal;text-indent:0;text-align:start;text-decoration:none;text-decoration-line:none;text-decoration-style:solid;text-decoration-color:#000000;letter-spacing:normal;word-spacing:normal;text-transform:none;writing-mode:lr-tb;direction:ltr;text-orientation:mixed;dominant-baseline:auto;baseline-shift:baseline;text-anchor:start;white-space:normal;shape-padding:0;shape-margin:0;inline-size:0;clip-rule:nonzero;display:inline;overflow:visible;visibility:visible;opacity:1;isolation:auto;mix-blend-mode:normal;color-interpolation:sRGB;color-interpolation-filters:linearRGB;solid-color:#000000;solid-opacity:1;vector-effect:none;fill:#253898;fill-opacity:1;fill-rule:nonzero;stroke:none;stroke-width:2.21205;stroke-linecap:butt;stroke-linejoin:miter;stroke-miterlimit:4;stroke-dasharray:none;stroke-dashoffset:0;stroke-opacity:1;color-rendering:auto;image-rendering:auto;shape-rendering:auto;text-rendering:auto;enable-background:accumulate;stop-color:#000000;stop-opacity:1" id="path75" />
    <path style="color:#000000;font-style:normal;font-variant:normal;font-weight:normal;font-stretch:normal;font-size:medium;line-height:normal;font-family:sans-serif;font-variant-ligatures:normal;font-variant-position:normal;font-variant-caps:normal;font-variant-numeric:normal;font-variant-alternates:normal;font-variant-east-asian:normal;font-feature-settings:normal;font-variation-settings:normal;text-indent:0;text-align:start;text-decoration:none;text-decoration-line:none;text-decoration-style:solid;text-decoration-color:#000000;letter-spacing:normal;word-spacing:normal;text-transform:none;writing-mode:lr-tb;direction:ltr;text-orientation:mixed;dominant-baseline:auto;baseline-shift:baseline;text-anchor:start;white-space:normal;shape-padding:0;shape-margin:0;inline-size:0;clip-rule:nonzero;display:inline;overflow:visible;visibility:visible;opacity:1;isolation:auto;mix-blend-mode:normal;color-interpolation:sRGB;color-interpolation-filters:linearRGB;solid-color:#000000;solid-opacity:1;vector-effect:none;fill:#253898;fill-opacity:1;fill-rule:nonzero;stroke:none;stroke-width:0.5;stroke-linecap:butt;stroke-linejoin:miter;stroke-miterlimit:4;stroke-dasharray:none;stroke-dashoffset:0;stroke-opacity:1;color-rendering:auto;image-rendering:auto;shape-rendering:auto;text-rendering:auto;enable-background:accumulate;stop-color:#000000;stop-opacity:1" d="M 11.815921,6.4085788 C 7.0658884,6.4085788 3.208,10.266461 3.208,15.016502 V 165.64133 c 0,4.75003 3.8578884,8.60792 8.607921,8.60792 H 197.68493 c 4.75003,0 8.60976,-3.85789 8.60976,-8.60792 V 15.016502 c 0,-4.750041 -3.85973,-8.6079232 -8.60976,-8.6079232 z m 0,2.2122042 H 197.68493 c 3.56282,0 6.39755,2.83289 6.39756,6.395719 V 165.64133 c 0,3.56282 -2.83474,6.39755 -6.39756,6.39757 H 11.815921 c -3.5628266,0 -6.3957199,-2.83475 -6.3957199,-6.39757 V 15.016502 c 0,-3.562829 2.8328933,-6.395719 6.3957199,-6.395719 z" id="path83" />
    <g transform="matrix(4.1445153,0,0,4.1445153,159.56919,48.916848)" id="use1258" style="fill:#000000;fill-opacity:1">
      <path style="fill:#ffffff;stroke:none;stroke-width:0.510146" d="M 2.8379423,-2.5226966 2.207478,-1.7608084 2.8229313,0 H 2.207478 L 1.809685,-1.1766941 1.4569252,-0.77035366 V 0 H 0.86398839 V -3.1745343 L 1.4569252,-3.4369625 v 1.6253616 l 0.6304644,-0.7110957 z m 0,0" id="path1537" />
      <path id="path1806" d="M 2.8379423,10.506571 2.207478,11.268459 2.8229313,13.029265 H 2.207478 l -0.397793,-1.176692 -0.3527598,0.40634 v 0.770352 H 0.86398839 V 9.8547341 L 1.4569252,9.5923059 v 1.6253601 l 0.6304644,-0.711095 z m 0,0" style="fill:#ffffff;stroke:none;stroke-width:0.510146" />
      <path style="fill:#ffffff;stroke:none;stroke-width:0.510146" d="M 2.8379423,23.535826 2.207478,24.297714 2.8229313,26.05852 H 2.207478 L 1.809685,24.881828 1.4569252,25.288168 V 26.05852 H 0.86398839 V 22.88399 L 1.4569252,22.621561 v 1.62536 l 0.6304644,-0.711095 z m 0,0" id="path1814" />
    </g>
    <g transform="matrix(2.6369227,0,0,2.6369227,-227.33282,-159.39594)" style="opacity:1;fill:#ffffff;fill-opacity:1" id="g1236">
      <g style="fill:#ffffff" id="use1234" transform="translate(93.599998,77.279999)">
        <path id="path1521" d="m 4.5625,-6.828125 0.09375,-1.203125 1.234375,0.078125 c 0.164063,0.011719 0.25,0.0625 0.25,0.15625 0,0.042969 -0.039062,0.125 -0.109375,0.25 -0.074219,0.125 -0.125,0.367187 -0.15625,0.71875 h 4.0625 v 1.0625 H 5.78125 l -0.078125,0.75 h 3.53125 v 5.3125 c 0,0.289063 -0.054687,0.519531 -0.15625,0.6875 -0.105469,0.175781 -0.304687,0.3125 -0.59375,0.40625 -0.28125,0.101563 -0.699219,0.1875 -1.25,0.25 C 7.179688,1.210938 7.019531,0.75 6.75,0.25 c 0.40625,0.070313 0.679688,0.109375 0.828125,0.109375 0.144531,0 0.238281,-0.027344 0.28125,-0.078125 C 7.898438,0.226563 7.921875,0.132813 7.921875,0 V -3.953125 H 6.1875 c 0.3125,0.117187 0.535156,0.195312 0.671875,0.234375 0.144531,0.042969 0.21875,0.101562 0.21875,0.171875 0,0.074219 -0.046875,0.140625 -0.140625,0.203125 -0.09375,0.054687 -0.292969,0.25 -0.59375,0.59375 h 1.078125 v 0.953125 h -1.6875 v 0.578125 h 1.78125 v 0.984375 h -1.78125 v 1.34375 H 4.5 v -1.34375 H 2.75 V -1.21875 H 4.5 V -1.796875 H 2.84375 V -2.75 H 3.921875 C 3.742188,-3.050781 3.539063,-3.335938 3.3125,-3.609375 l 0.859375,-0.34375 H 2.453125 V 1.625 h -1.25 V -5.015625 H 4.40625 l 0.0625,-0.75 h -3.9375 v -1.0625 z m 1.234375,2.875 H 4.46875 C 4.65625,-3.648438 4.832031,-3.34375 5,-3.03125 L 4.234375,-2.75 h 1.03125 c 0.226563,-0.351563 0.40625,-0.753906 0.53125,-1.203125 z m 0,0" style="fill:#ffffff;stroke:none" />
      </g>
    </g>
    <g transform="matrix(2.6369227,0,0,2.6369227,-223.53213,-159.39594)" style="opacity:1;fill:#ffffff;fill-opacity:1" id="g1240">
      <g style="fill:#ffffff" id="use1238" transform="translate(103.95795,77.279999)">
        <path id="path1525" d="M 5.5625,-5.453125 H 8.375 v 5.84375 h 1.5625 v 1.09375 H 0.390625 V 0.390625 H 1.875 v -5.84375 H 4.28125 L 4.3125,-5.96875 H 0.875 V -7 h 3.515625 l 0.078125,-1.0625 1.234375,0.078125 c 0.1875,0.023437 0.28125,0.070312 0.28125,0.140625 0,0.042969 -0.039062,0.125 -0.109375,0.25 C 5.8125,-7.476563 5.757813,-7.28125 5.71875,-7 h 3.796875 v 1.03125 h -3.90625 z m 1.46875,1.5 V -4.4375 H 3.171875 v 0.484375 z M 3.171875,-3 v 0.5 H 7.03125 V -3 Z m 0,1.453125 v 0.46875 H 7.03125 v -0.46875 z m 3.859375,1.9375 v -0.5 H 3.171875 v 0.5 z m 0,0" style="fill:#ffffff;stroke:none" />
      </g>
    </g>
    <g transform="matrix(2.6369227,0,0,2.6369227,-224.33261,-159.39594)" style="opacity:1;fill:#ffffff;fill-opacity:1" id="g1244">
      <g style="fill:#ffffff" id="use1242" transform="translate(114.21233,77.279999)">
        <path id="path1529" d="m 6.0214306,-4.9375 c 0.5625,-0.582031 1,-1.613281 1.3125,-3.09375 0.226563,0.023437 0.5,0.058594 0.8125,0.109375 0.320313,0.042969 0.515625,0.074219 0.578125,0.09375 0.0625,0.023437 0.09375,0.058594 0.09375,0.109375 0,0.054687 -0.03125,0.117187 -0.09375,0.1875 -0.0625,0.074219 -0.15625,0.25 -0.28125,0.53125 h 2.6093704 c -0.304687,1.21875 -0.765624,2.183594 -1.3906204,2.890625 0.6015604,0.355469 1.3476514,0.625 2.2343694,0.8125 -0.312499,0.429687 -0.585936,0.84375 -0.812499,1.25 -0.167969,-0.0625 -0.289062,-0.109375 -0.359375,-0.140625 v 3.875 H 9.4433056 v -0.625 h -1.578125 v 0.625 H 6.6308056 V -2.109375 L 6.3808056,-2 c -0.117187,-0.195313 -0.21875,-0.363281 -0.3125,-0.5 v 0.796875 h -1.046875 v 1.046875 c 0.425781,-0.125 0.828125,-0.253906 1.203125,-0.390625 -0.011719,0.117187 -0.015625,0.273437 -0.015625,0.46875 0,0.199219 0.023438,0.421875 0.078125,0.671875 -1.398437,0.414063 -2.734375,0.890625 -4.0156252,1.421875 l -0.46875,-1.40625 C 1.9589304,0.0859375 2.1503364,0.0507813 2.3808055,0 v -3.34375 h 0.9062501 c 0.195313,0 0.296875,0.042969 0.296875,0.125 0,0.042969 -0.015625,0.09375 -0.046875,0.15625 -0.0625,0.125 -0.09375,0.449219 -0.09375,0.96875 V -0.25 l 0.453125,-0.09375 v -3.546875 h -1.296875 v -3.53125 h 3.421875 z m -1.140625,-0.046875 v -1.34375 h -1.140625 v 1.34375 z m 3.859375,0.140625 c 0.238281,-0.3125 0.457031,-0.679688 0.65625,-1.109375 h -1.359375 c 0.15625,0.398437 0.390625,0.765625 0.703125,1.109375 z m -1.40625,0.03125 c -0.167969,0.25 -0.335937,0.480469 -0.5,0.6875 -0.355469,-0.269531 -0.625,-0.445313 -0.8125,-0.53125 v 0.765625 h -1 v 1.0625 h 0.78125 c -0.0625,-0.0625 -0.148437,-0.144531 -0.25,-0.25 0.976563,-0.269531 1.738281,-0.59375 2.28125,-0.96875 -0.199219,-0.21875 -0.367187,-0.472656 -0.5,-0.765625 z m 1.375,1.5625 c -0.429687,0.3125 -0.917969,0.605469 -1.46875,0.875 H 10.271427 C 9.6659616,-2.65625 9.1464306,-2.945313 8.7089306,-3.25 Z m 0.734375,3.34375 V -1.3125 h -1.578125 v 1.40625 z m 0,0" style="fill:#ffffff;stroke:none" />
      </g>
    </g>
    <g transform="matrix(3.451698,0,0,4.1445153,-423.03812,-271.37129)" style="opacity:1;fill:#ffffff;fill-opacity:1" id="g1256">
      <g style="fill:#ffffff" id="use1254" transform="translate(161.23741,77.279999)">
        <path id="path1533" d="m 5.640625,0 h -4.96875 c 0.050781,-0.738281 0.207031,-1.34375 0.46875,-1.8125 0.269531,-0.476563 0.59375,-0.859375 0.96875,-1.140625 C 2.492188,-3.242188 2.976563,-3.488281 3.5625,-3.6875 3.800781,-3.757813 3.988281,-3.863281 4.125,-4 4.269531,-4.144531 4.34375,-4.296875 4.34375,-4.453125 4.34375,-4.609375 4.226563,-4.75 4,-4.875 3.78125,-5 3.503906,-5.0625 3.171875,-5.0625 c -0.605469,0 -1.152344,0.210937 -1.640625,0.625 L 0.671875,-5.328125 c 0.40625,-0.320313 0.804688,-0.5625 1.203125,-0.71875 0.394531,-0.15625 0.84375,-0.234375 1.34375,-0.234375 0.757813,0 1.335938,0.171875 1.734375,0.515625 0.40625,0.335937 0.609375,0.761719 0.609375,1.28125 0,0.523437 -0.167969,0.949219 -0.5,1.28125 -0.335937,0.335937 -0.917969,0.640625 -1.75,0.921875 -0.417969,0.15625 -0.792969,0.5 -1.125,1.03125 h 3.453125 z m 0,0" style="fill:#ffffff;stroke:none" />
      </g>
    </g>
    <g transform="matrix(1.9908337,0,0,2.2454453,-173.07917,-124.61116)" style="opacity:1;fill:#ffffff;fill-opacity:1" id="g1264">
      <g style="fill:#ffffff" id="use1262" transform="translate(173.43909,77.279999)">
        <path id="path1541" d="M 8.09375,0 H 6.875 V -2.796875 C 6.875,-2.992188 6.789063,-3.164063 6.625,-3.3125 6.457031,-3.457031 6.265625,-3.53125 6.046875,-3.53125 5.835938,-3.53125 5.65625,-3.457031 5.5,-3.3125 5.351563,-3.164063 5.28125,-2.992188 5.28125,-2.796875 V 0 H 4.078125 V -2.8125 C 4.078125,-3 4.007813,-3.164063 3.875,-3.3125 3.738281,-3.457031 3.550781,-3.53125 3.3125,-3.53125 c -0.230469,0 -0.429687,0.070312 -0.59375,0.203125 C 2.5625,-3.191406 2.484375,-3.019531 2.484375,-2.8125 V 0 H 1.25 V -4.65625 H 2.484375 V -4.375 c 0.363281,-0.226563 0.753906,-0.34375 1.171875,-0.34375 0.519531,0 0.929688,0.179687 1.234375,0.53125 0.425781,-0.351563 0.890625,-0.53125 1.390625,-0.53125 0.5,0 0.925781,0.152344 1.28125,0.453125 0.351563,0.304687 0.53125,0.664062 0.53125,1.078125 z m 0,0" style="fill:#ffffff;stroke:none" />
      </g>
    </g>
    <g transform="matrix(2.6534487,0,0,2.6534487,-227.94795,-164.61184)" style="opacity:1;fill:#ffffff;fill-opacity:1" id="g1272">
      <g style="fill:#ffffff" id="use1270" transform="translate(93.599998,99)">
        <path id="path1545" d="M 9.515625,0.40625 8.15625,0.6875 C 7.632813,-1.457031 6.789063,-3.726563 5.625,-6.125 l 1.09375,-0.34375 c 1.164063,2.230469 2.097656,4.523437 2.796875,6.875 z M 4.03125,-6.25 c -0.242187,1.492187 -0.527344,2.730469 -0.859375,3.71875 -0.335937,0.980469 -0.855469,2.039062 -1.5625,3.171875 L 0.546875,-0.0625 C 1.203125,-1.050781 1.691406,-1.988281 2.015625,-2.875 2.347656,-3.769531 2.632813,-4.941406 2.875,-6.390625 Z m 0,0" style="fill:#ffffff;stroke:none" />
      </g>
    </g>
    <g transform="matrix(2.6534487,0,0,2.6534487,-225.84819,-164.61184)" style="opacity:1;fill:#ffffff;fill-opacity:1" id="g1276">
      <g style="fill:#ffffff" id="use1274" transform="translate(103.95795,99)">
        <path id="path1549" d="M 9.828125,-2.71875 H 0.546875 V -4 h 9.28125 z m 0,0" style="fill:#ffffff;stroke:none" />
      </g>
    </g>
    <g transform="matrix(2.6534487,0,0,2.6534487,-224.64836,-164.61184)" style="opacity:1;fill:#ffffff;fill-opacity:1" id="g1280">
      <g style="fill:#ffffff" id="use1278" transform="translate(114.21233,99)">
        <path id="path1553" d="m 5.181951,-4.9375 c 0.5625,-0.582031 1,-1.613281 1.3125,-3.09375 0.226563,0.023437 0.5,0.058594 0.8125,0.109375 0.320313,0.042969 0.515625,0.074219 0.578125,0.09375 0.0625,0.023437 0.09375,0.058594 0.09375,0.109375 0,0.054687 -0.03125,0.117187 -0.09375,0.1875 -0.0625,0.074219 -0.15625,0.25 -0.28125,0.53125 h 2.609375 c -0.304687,1.21875 -0.765625,2.183594 -1.390625,2.890625 0.601563,0.355469 1.347656,0.625 2.234378,0.8125 -0.3125,0.429687 -0.585939,0.84375 -0.812503,1.25 C 10.076482,-2.109375 9.955389,-2.15625 9.885076,-2.1875 v 3.875 H 8.603826 V 1.0625 H 7.025701 v 0.625 H 5.791326 V -2.109375 L 5.541326,-2 c -0.117187,-0.195313 -0.21875,-0.363281 -0.3125,-0.5 v 0.796875 H 4.181951 v 1.046875 c 0.425781,-0.125 0.828125,-0.253906 1.203125,-0.390625 -0.011719,0.117187 -0.015625,0.273437 -0.015625,0.46875 0,0.199219 0.023438,0.421875 0.078125,0.671875 C 4.049139,0.507813 2.713201,0.984375 1.431951,1.515625 L 0.96320123,0.109375 C 1.1194511,0.0859375 1.310857,0.0507813 1.541326,0 v -3.34375 h 0.90625 c 0.195313,0 0.296875,0.042969 0.296875,0.125 0,0.042969 -0.015625,0.09375 -0.046875,0.15625 -0.0625,0.125 -0.09375,0.449219 -0.09375,0.96875 V -0.25 L 3.056951,-0.34375 V -3.890625 H 1.760076 v -3.53125 H 5.181951 Z M 4.041326,-4.984375 v -1.34375 H 2.900701 v 1.34375 z m 3.859375,0.140625 c 0.238281,-0.3125 0.457031,-0.679688 0.65625,-1.109375 H 7.197576 c 0.15625,0.398437 0.390625,0.765625 0.703125,1.109375 z m -1.40625,0.03125 c -0.167969,0.25 -0.335937,0.480469 -0.5,0.6875 -0.355469,-0.269531 -0.625,-0.445313 -0.8125,-0.53125 v 0.765625 h -1 v 1.0625 h 0.78125 c -0.0625,-0.0625 -0.148437,-0.144531 -0.25,-0.25 0.976563,-0.269531 1.738281,-0.59375 2.28125,-0.96875 -0.199219,-0.21875 -0.367187,-0.472656 -0.5,-0.765625 z m 1.375,1.5625 c -0.429687,0.3125 -0.917969,0.605469 -1.46875,0.875 h 3.03125 c -0.605469,-0.28125 -1.125,-0.570313 -1.5625,-0.875 z M 8.603826,0.09375 V -1.3125 H 7.025701 v 1.40625 z m 0,0" style="fill:#ffffff;stroke:none" />
      </g>
    </g>
    <g transform="matrix(2.6534487,0,0,2.6534487,-227.94795,-164.61184)" style="opacity:1;fill:#ffffff;fill-opacity:1" id="g1284">
      <g style="fill:#ffffff" id="use1282" transform="translate(161.23741,99)">
        <path id="path1557" d="m -24.600327,1.6321219 h -1.636872 v -6.6229298 h -0.828796 v -1.9893049 c 0.466199,-0.1758832 0.771816,-0.5579757 0.911676,-1.1402113 h 1.553992 z m 0,0" style="fill:#ffffff;stroke:none;stroke-width:1.43489" />
      </g>
    </g>
    <g transform="matrix(3.5186677,0,0,4.1198193,-441.91086,-305.45178)" style="opacity:1;fill:#ffffff;fill-opacity:1" id="g1288">
      <g style="fill:#ffffff" id="use1286" transform="translate(164.71768,99)">
        <path id="path1561" d="M 2.1875,-4.15625 C 2.5,-4.226563 2.878906,-4.265625 3.328125,-4.265625 c 0.71875,0 1.289063,0.21875 1.71875,0.65625 0.425781,0.429687 0.640625,0.9375 0.640625,1.53125 0,0.59375 -0.226562,1.101562 -0.671875,1.515625 C 4.578125,-0.144531 4,0.0625 3.28125,0.0625 2.289063,0.0625 1.425781,-0.15625 0.6875,-0.59375 L 1.375,-1.640625 c 0.5,0.324219 1.109375,0.484375 1.828125,0.484375 0.4375,0 0.753906,-0.082031 0.953125,-0.25 0.207031,-0.164063 0.3125,-0.398438 0.3125,-0.703125 0,-0.300781 -0.109375,-0.53125 -0.328125,-0.6875 C 3.929688,-2.953125 3.625,-3.03125 3.21875,-3.03125 c -0.398437,0 -0.78125,0.074219 -1.15625,0.21875 l -1.25,-0.484375 0.265625,-2.921875 h 4.0625 v 1.25 H 2.3125 Z m 0,0" style="fill:#ffffff;stroke:none" />
      </g>
    </g>
    <g id="g1812" style="opacity:1;fill:#ffffff;fill-opacity:1" transform="matrix(1.9908337,0,0,2.2454453,-173.07917,-70.61116)">
      <g style="fill:#ffffff" transform="translate(173.43909,77.279999)" id="g1810">
        <path style="fill:#ffffff;stroke:none" d="M 8.09375,0 H 6.875 V -2.796875 C 6.875,-2.992188 6.789063,-3.164063 6.625,-3.3125 6.457031,-3.457031 6.265625,-3.53125 6.046875,-3.53125 5.835938,-3.53125 5.65625,-3.457031 5.5,-3.3125 5.351563,-3.164063 5.28125,-2.992188 5.28125,-2.796875 V 0 H 4.078125 V -2.8125 C 4.078125,-3 4.007813,-3.164063 3.875,-3.3125 3.738281,-3.457031 3.550781,-3.53125 3.3125,-3.53125 c -0.230469,0 -0.429687,0.070312 -0.59375,0.203125 C 2.5625,-3.191406 2.484375,-3.019531 2.484375,-2.8125 V 0 H 1.25 V -4.65625 H 2.484375 V -4.375 c 0.363281,-0.226563 0.753906,-0.34375 1.171875,-0.34375 0.519531,0 0.929688,0.179687 1.234375,0.53125 0.425781,-0.351563 0.890625,-0.53125 1.390625,-0.53125 0.5,0 0.925781,0.152344 1.28125,0.453125 0.351563,0.304687 0.53125,0.664062 0.53125,1.078125 z m 0,0" id="path1808" />
      </g>
    </g>
    <g transform="matrix(2.6369227,0,0,2.6369227,-227.83239,-159.39594)" style="opacity:1;fill:#ffffff;fill-opacity:1" id="g1324">
      <g style="fill:#ffffff" id="use1322" transform="translate(161.25813,120.84)">
        <path id="path1589" d="m -22.435056,-0.94216018 h -5.713164 c 0.05839,-1.17149232 0.238048,-2.13224062 0.538978,-2.87604552 0.309911,-0.7562024 0.682705,-1.3636423 1.113887,-1.8099252 0.440166,-0.4586805 0.997109,-0.8491768 1.670831,-1.1652943 0.27398,-0.1115715 0.489571,-0.2789265 0.646773,-0.4958699 0.166185,-0.2293395 0.251523,-0.4710765 0.251523,-0.7190114 0,-0.247935 -0.134744,-0.4710764 -0.395251,-0.6694244 -0.251522,-0.198348 -0.570417,-0.297522 -0.952193,-0.297522 -0.69618,0 -1.324988,0.3347114 -1.886422,0.9917399 l -0.988126,-1.4132293 c 0.467114,-0.5082675 0.925246,-0.8925657 1.383376,-1.1405007 0.453639,-0.247935 0.97016,-0.371903 1.54507,-0.371903 0.871347,0 1.536086,0.272729 1.994217,0.818186 0.467114,0.5330592 0.700671,1.2086831 0.700671,2.0330665 0,0.8305813 -0.193133,1.5062053 -0.57491,2.0330667 -0.386266,0.5330593 -1.055498,1.0165333 -2.012183,1.4628162 -0.480589,0.247935 -0.911771,0.7933919 -1.293546,1.6363707 h 3.970469 z m 0,0" style="fill:#ffffff;stroke:none;stroke-width:1.35074" />
      </g>
    </g>
    <g transform="matrix(3.0319843,0,0,4.1842261,-367.80107,-348.85647)" style="opacity:1;fill:#ffffff;fill-opacity:1" id="g1328">
      <g style="fill:#ffffff" id="use1326" transform="translate(167.57648,120.84)">
        <path id="path1593" d="M 2.1875,-4.15625 C 2.5,-4.226563 2.878906,-4.265625 3.328125,-4.265625 c 0.71875,0 1.289063,0.21875 1.71875,0.65625 0.425781,0.429687 0.640625,0.9375 0.640625,1.53125 0,0.59375 -0.226562,1.101562 -0.671875,1.515625 C 4.578125,-0.144531 4,0.0625 3.28125,0.0625 2.289063,0.0625 1.425781,-0.15625 0.6875,-0.59375 L 1.375,-1.640625 c 0.5,0.324219 1.109375,0.484375 1.828125,0.484375 0.4375,0 0.753906,-0.082031 0.953125,-0.25 0.207031,-0.164063 0.3125,-0.398438 0.3125,-0.703125 0,-0.300781 -0.109375,-0.53125 -0.328125,-0.6875 C 3.929688,-2.953125 3.625,-3.03125 3.21875,-3.03125 c -0.398437,0 -0.78125,0.074219 -1.15625,0.21875 l -1.25,-0.484375 0.265625,-2.921875 h 4.0625 v 1.25 H 2.3125 Z m 0,0" style="fill:#ffffff;stroke:none" />
      </g>
    </g>
    <g transform="matrix(1.9908337,0,0,2.2454453,-173.07917,-16.61116)" style="opacity:1;fill:#ffffff;fill-opacity:1" id="g1820">
      <g style="fill:#ffffff" id="g1818" transform="translate(173.43909,77.279999)">
        <path id="path1816" d="M 8.09375,0 H 6.875 V -2.796875 C 6.875,-2.992188 6.789063,-3.164063 6.625,-3.3125 6.457031,-3.457031 6.265625,-3.53125 6.046875,-3.53125 5.835938,-3.53125 5.65625,-3.457031 5.5,-3.3125 5.351563,-3.164063 5.28125,-2.992188 5.28125,-2.796875 V 0 H 4.078125 V -2.8125 C 4.078125,-3 4.007813,-3.164063 3.875,-3.3125 3.738281,-3.457031 3.550781,-3.53125 3.3125,-3.53125 c -0.230469,0 -0.429687,0.070312 -0.59375,0.203125 C 2.5625,-3.191406 2.484375,-3.019531 2.484375,-2.8125 V 0 H 1.25 V -4.65625 H 2.484375 V -4.375 c 0.363281,-0.226563 0.753906,-0.34375 1.171875,-0.34375 0.519531,0 0.929688,0.179687 1.234375,0.53125 0.425781,-0.351563 0.890625,-0.53125 1.390625,-0.53125 0.5,0 0.925781,0.152344 1.28125,0.453125 0.351563,0.304687 0.53125,0.664062 0.53125,1.078125 z m 0,0" style="fill:#ffffff;stroke:none" />
      </g>
    </g>
    <g style="opacity:1" id="g3794" transform="matrix(0.40055483,0,0,0.40055483,-11.464322,-115.7291)">
      <rect ry="10.164636" y="614.13867" x="128.27841" height="64.926842" width="132.00308" id="rect2996" style="fill:#ffffff;fill-opacity:1;fill-rule:nonzero;stroke:#ff0000;stroke-width:2.99692;stroke-miterlimit:4;stroke-dasharray:none;stroke-dashoffset:0;stroke-opacity:1" />
      <path d="m 138.4375,620.19727 c -2.35623,0 -4.08398,1.73654 -4.08398,4.11523 v 44.59375 c 0,2.37869 1.70529,4.08398 4.08398,4.08398 H 250.125 c 2.37869,0 4.08398,-1.70529 4.08398,-4.08398 V 624.3125 c 0,-2.37869 -1.72775,-4.11523 -4.08398,-4.11523 z" id="path3776" style="fill:#ff0000;fill-opacity:1;fill-rule:nonzero;stroke:#ff0000;stroke-width:2.99692;stroke-miterlimit:4;stroke-dasharray:none;stroke-dashoffset:0;stroke-opacity:1" />
    </g>
    <g transform="matrix(0.35826712,0,0,0.44783391,39.317998,-264.65466)" style="font-style:normal;font-variant:normal;font-weight:normal;font-stretch:normal;font-size:50.0879px;line-height:0%;font-family:STJTBZ;-inkscape-font-specification:STJTBZ;text-align:start;letter-spacing:0px;word-spacing:0px;writing-mode:lr-tb;text-anchor:start;opacity:1;fill:#ffffff;fill-opacity:1;stroke:none" id="text3778">
      <path d="m 65.148149,926.29065 h -6.011834 v -20.63559 h -3.005153 v -6.21207 c 1.702812,-0.53395 2.821719,-1.70228 3.356722,-3.505 h 5.660265 z" style="fill:#ffffff" id="path3011" />
    </g>
    <g transform="matrix(0.35826712,0,0,0.44783391,39.317998,-264.65466)" style="font-style:normal;font-variant:normal;font-weight:normal;font-stretch:normal;font-size:50.0879px;line-height:0%;font-family:STJTBZ;-inkscape-font-specification:STJTBZ;text-align:start;letter-spacing:0px;word-spacing:0px;writing-mode:lr-tb;text-anchor:start;opacity:1;fill:#ffffff;fill-opacity:1;stroke:none" id="text3798">
      <path d="m 44.582132,911.06466 c -0.467767,10.21793 -4.4247,15.32689 -11.870813,15.32689 -3.506533,0 -6.386596,-1.36908 -8.640197,-4.10724 -2.253614,-2.73816 -3.380418,-6.37817 -3.380415,-10.92005 -3e-6,-4.90768 1.143615,-8.72246 3.430858,-11.44434 2.287229,-2.72183 5.234039,-4.08276 8.840438,-4.08279 2.270407,3e-5 4.323773,0.63463 6.160105,1.90382 1.83629,1.26924 3.288932,3.10581 4.357931,5.5097 l -5.508938,2.05439 c -0.935499,-2.33766 -2.655639,-3.5065 -5.160425,-3.50652 -4.07312,2e-5 -6.109672,3.12211 -6.109663,9.36626 -9e-6,6.24419 2.086986,9.36627 6.26099,9.36627 2.337663,0 4.007361,-1.15202 5.009098,-3.45608 H 34.46458 v -6.01031 z" style="fill:#ffffff" id="path3008" />
    </g>
    <g transform="matrix(0.35826712,0,0,0.44783391,39.317998,-264.65466)" style="font-style:normal;font-variant:normal;font-weight:normal;font-stretch:normal;font-size:50.0879px;line-height:0%;font-family:STJTBZ;-inkscape-font-specification:STJTBZ;text-align:start;letter-spacing:0px;word-spacing:0px;writing-mode:lr-tb;text-anchor:start;opacity:1;fill:#ffffff;fill-opacity:1;stroke:none" id="text3802">
      <path d="m 89.169773,895.78742 c 3.57274,3e-5 6.544516,1.37726 8.915338,4.1317 2.370769,2.75449 3.556169,6.48597 3.556199,11.19443 -3e-5,4.70849 -1.11868,8.44021 -3.355957,11.19518 -2.237328,2.75498 -5.300818,4.13247 -9.19048,4.13247 -3.889692,0 -6.969996,-1.36093 -9.240921,-4.08279 -2.270938,-2.72185 -3.406404,-6.44517 -3.406401,-11.16996 -3e-6,-4.72477 1.135463,-8.4728 3.406401,-11.24411 2.270925,-2.77125 5.376195,-4.15689 9.315821,-4.15692 z m 0.301127,24.74283 c 1.869923,10e-6 3.389312,-0.88477 4.558172,-2.65435 1.168818,-1.76955 1.753238,-4.14875 1.75326,-7.13762 -2.2e-5,-2.98883 -0.534509,-5.24294 -1.603461,-6.76235 -1.068994,-1.51937 -2.755506,-2.27907 -5.059541,-2.27909 -4.507231,2e-5 -6.760838,3.1723 -6.76083,9.51683 -8e-6,3.00516 0.609378,5.30921 1.828161,6.91215 1.218761,1.60296 2.980172,2.40444 5.284239,2.40443 z" style="fill:#ffffff" id="path3005" />
    </g>
    <g transform="matrix(0.35826712,0,0,0.44783391,39.317998,-264.65466)" style="font-style:normal;font-variant:normal;font-weight:normal;font-stretch:normal;font-size:50.0879px;line-height:0%;font-family:STJTBZ;-inkscape-font-specification:STJTBZ;text-align:start;letter-spacing:0px;word-spacing:0px;writing-mode:lr-tb;text-anchor:start;opacity:1;fill:#ffffff;fill-opacity:1;stroke:none" id="text3806">
      <path d="m 121.83994,925.9903 h -6.01184 v -20.63559 h -3.00515 v -6.21208 c 1.70281,-0.53395 2.82172,-1.70228 3.35672,-3.50499 h 5.66027 z" style="fill:#ffffff" id="path3002" />
    </g>
  </g>
</svg>
