<?xml version="1.0" encoding="UTF-8"?>
<svg xmlns="http://www.w3.org/2000/svg" xmlns:ns1="http://sodipodi.sourceforge.net/DTD/sodipodi-0.dtd" version="1.1" id="svg1569" width="125.217" height="61.676151" viewBox="0 0 125.217 61.676151">
  <defs id="defs1573" />
  <ns1:namedview pagecolor="#ffffff" bordercolor="#666666" borderopacity="1" objecttolerance="10" gridtolerance="10" guidetolerance="10" id="namedview1571" showgrid="false" />
  <g id="g1577" transform="translate(365.40651,557.98783)">
    <path style="color:#000000;font-style:normal;font-variant:normal;font-weight:normal;font-stretch:normal;font-size:medium;line-height:normal;font-family:sans-serif;font-variant-ligatures:normal;font-variant-position:normal;font-variant-caps:normal;font-variant-numeric:normal;font-variant-alternates:normal;font-variant-east-asian:normal;font-feature-settings:normal;font-variation-settings:normal;text-indent:0;text-align:start;text-decoration:none;text-decoration-line:none;text-decoration-style:solid;text-decoration-color:#000000;letter-spacing:normal;word-spacing:normal;text-transform:none;writing-mode:lr-tb;direction:ltr;text-orientation:mixed;dominant-baseline:auto;baseline-shift:baseline;text-anchor:start;white-space:normal;shape-padding:0;shape-margin:0;inline-size:0;clip-rule:nonzero;display:inline;overflow:visible;visibility:visible;opacity:1;isolation:auto;mix-blend-mode:normal;color-interpolation:sRGB;color-interpolation-filters:linearRGB;solid-color:#000000;solid-opacity:1;vector-effect:none;fill:#ffffff;fill-opacity:1;fill-rule:nonzero;stroke:none;stroke-width:3.14663;stroke-linecap:butt;stroke-linejoin:miter;stroke-miterlimit:4;stroke-dasharray:none;stroke-dashoffset:0;stroke-opacity:1;color-rendering:auto;image-rendering:auto;shape-rendering:auto;text-rendering:auto;enable-background:accumulate;stop-color:#000000;stop-opacity:1" d="m -352.91091,-556.16445 h 100.22484 c 5.91252,0 10.67236,4.75988 10.67236,10.67237 v 36.68591 c 0,5.91249 -4.75984,10.67238 -10.67236,10.67238 h -100.22484 c -5.91245,0 -10.67231,-4.75989 -10.67231,-10.67238 v -36.68591 c 0,-5.91249 4.75986,-10.67237 10.67231,-10.67237 z" id="path81-6" />
    <path style="color:#000000;font-style:normal;font-variant:normal;font-weight:normal;font-stretch:normal;font-size:medium;line-height:normal;font-family:sans-serif;font-variant-ligatures:normal;font-variant-position:normal;font-variant-caps:normal;font-variant-numeric:normal;font-variant-alternates:normal;font-variant-east-asian:normal;font-feature-settings:normal;font-variation-settings:normal;text-indent:0;text-align:start;text-decoration:none;text-decoration-line:none;text-decoration-style:solid;text-decoration-color:#000000;letter-spacing:normal;word-spacing:normal;text-transform:none;writing-mode:lr-tb;direction:ltr;text-orientation:mixed;dominant-baseline:auto;baseline-shift:baseline;text-anchor:start;white-space:normal;shape-padding:0;shape-margin:0;inline-size:0;clip-rule:nonzero;display:inline;overflow:visible;visibility:visible;opacity:1;isolation:auto;mix-blend-mode:normal;color-interpolation:sRGB;color-interpolation-filters:linearRGB;solid-color:#000000;solid-opacity:1;vector-effect:none;fill:#253898;fill-opacity:1;fill-rule:nonzero;stroke:none;stroke-width:0.5;stroke-linecap:butt;stroke-linejoin:miter;stroke-miterlimit:4;stroke-dasharray:none;stroke-dashoffset:0;stroke-opacity:1;color-rendering:auto;image-rendering:auto;shape-rendering:auto;text-rendering:auto;enable-background:accumulate;stop-color:#000000;stop-opacity:1" d="m -352.91183,-557.73783 c -6.75689,0 -12.24468,5.48782 -12.24468,12.24475 v 36.68665 c 0,6.75689 5.48779,12.24475 12.24468,12.24475 h 100.22498 c 6.75688,0 12.24734,-5.48786 12.24734,-12.24475 v -36.68665 c 0,-6.75693 -5.49046,-12.24475 -12.24734,-12.24475 z m 0,3.14686 h 100.22498 c 5.06808,0 9.10048,4.02976 9.10051,9.09789 v 36.68665 c 0,5.06809 -4.03243,9.10048 -9.10051,9.10052 h -100.22498 c -5.0681,0 -9.09784,-4.03243 -9.09784,-9.10052 v -36.68665 c 0,-5.06813 4.02974,-9.09789 9.09784,-9.09789 z" id="path83-8" />
    <path id="path75-0" style="color:#000000;font-style:normal;font-variant:normal;font-weight:normal;font-stretch:normal;font-size:medium;line-height:normal;font-family:sans-serif;font-variant-ligatures:normal;font-variant-position:normal;font-variant-caps:normal;font-variant-numeric:normal;font-variant-alternates:normal;font-variant-east-asian:normal;font-feature-settings:normal;font-variation-settings:normal;text-indent:0;text-align:start;text-decoration:none;text-decoration-line:none;text-decoration-style:solid;text-decoration-color:#000000;letter-spacing:normal;word-spacing:normal;text-transform:none;writing-mode:lr-tb;direction:ltr;text-orientation:mixed;dominant-baseline:auto;baseline-shift:baseline;text-anchor:start;white-space:normal;shape-padding:0;shape-margin:0;inline-size:0;clip-rule:nonzero;display:inline;overflow:visible;visibility:visible;opacity:1;isolation:auto;mix-blend-mode:normal;color-interpolation:sRGB;color-interpolation-filters:linearRGB;solid-color:#000000;solid-opacity:1;vector-effect:none;fill:#253898;fill-opacity:1;fill-rule:nonzero;stroke:#253898;stroke-width:1.47195;stroke-linecap:butt;stroke-linejoin:miter;stroke-miterlimit:4;stroke-dasharray:none;stroke-dashoffset:0;stroke-opacity:1;color-rendering:auto;image-rendering:auto;shape-rendering:auto;text-rendering:auto;enable-background:accumulate;stop-color:#000000;stop-opacity:1" d="m -352.91736,-551.37597 c -3.24698,0 -5.86212,2.63373 -5.86212,5.89327 v 36.68142 c 0,3.24964 2.61251,5.86217 5.86212,5.86217 h 100.24123 c 3.2496,0 5.86212,-2.61253 5.86212,-5.86217 v -36.68142 c 0,-3.25954 -2.61512,-5.89327 -5.86212,-5.89327 z" />
    <g id="g3885" style="opacity:1;fill:#ffffff;fill-opacity:1" transform="matrix(3.1591872,0,0,3.1591872,-648.83242,-829.81503)">
      <g style="fill:#ffffff" transform="translate(93.599998,99)" id="use3883">
        <path style="fill:#ffffff;stroke:none" d="m 4.046875,0.015625 v -7.84375 h 1.3125 c 0.207031,0 0.3125,0.054687 0.3125,0.15625 0,0.042969 -0.03125,0.109375 -0.09375,0.203125 C 5.523438,-7.375 5.5,-7.132813 5.5,-6.75 v 1.53125 h 3.640625 v 1.25 H 5.5 V 0.015625 H 10 V 1.21875 H 0.453125 V 0.015625 Z m 0,0" id="path3977" />
      </g>
    </g>
    <g id="g3889" style="opacity:1;fill:#ffffff;fill-opacity:1" transform="matrix(3.1591872,0,0,3.1591872,-647.18016,-829.81503)">
      <g style="fill:#ffffff" transform="translate(103.95795,99)" id="use3887">
        <path style="fill:#ffffff;stroke:none" d="m 5.828125,-6.046875 h -2.5 v -0.34375 l -0.8125,0.84375 C 2.023438,-5.972656 1.460938,-6.394531 0.828125,-6.8125 l 0.9375,-1.015625 c 0.46875,0.304687 0.988281,0.683594 1.5625,1.140625 v -0.328125 h 2.5 V -7.9375 H 7.03125 c 0.132813,0 0.203125,0.046875 0.203125,0.140625 0,0.042969 -0.011719,0.089844 -0.03125,0.140625 -0.0625,0.179687 -0.09375,0.390625 -0.09375,0.640625 h 2.625 v 0.96875 H 7.09375 v 0.40625 h 2.296875 v 0.90625 H 7.09375 V -4.375 h 2.9375 v 0.953125 h -7.125 v -0.5625 L 1.9375,-3 C 1.457031,-3.425781 0.890625,-3.828125 0.234375,-4.203125 L 1.125,-5.28125 c 0.738281,0.492187 1.332031,0.890625 1.78125,1.203125 V -4.375 h 2.921875 v -0.359375 h -2.3125 v -0.90625 h 2.3125 z M 4.96875,0.171875 v 1.59375 H 3.703125 V -3.09375 H 9.1875 v 3.734375 c 0,0.257813 -0.046875,0.457031 -0.140625,0.59375 C 8.953125,1.378906 8.765625,1.5 8.484375,1.59375 8.203125,1.6875 7.785156,1.742188 7.234375,1.765625 7.191406,1.285156 7.070313,0.882813 6.875,0.5625 7.195313,0.601563 7.425781,0.625 7.5625,0.625 c 0.132813,0 0.21875,-0.023437 0.25,-0.0625 0.03125,-0.042969 0.046875,-0.125 0.046875,-0.25 V 0.171875 Z m 0,-2 h 2.890625 v -0.34375 H 4.96875 Z M 7.859375,-1 H 4.96875 v 0.328125 H 7.859375 Z M 3.265625,-2.015625 C 2.691406,-0.867188 2.132813,0.347656 1.59375,1.640625 1,1.296875 0.566406,1.019531 0.296875,0.8125 0.910156,0.0078125 1.5625,-1.191406 2.25,-2.796875 c 0.320313,0.304687 0.660156,0.5625 1.015625,0.78125 z m 0,0" id="path3981" />
      </g>
    </g>
    <g id="g3893" style="opacity:1;fill:#ffffff;fill-opacity:1" transform="matrix(3.1591872,0,0,3.1591872,-647.17985,-829.81503)">
      <g style="fill:#ffffff" transform="translate(114.21233,99)" id="use3891">
        <path style="fill:#ffffff;stroke:none" d="m 7.2261294,-4.5625 c 0.6875,-0.570313 1.234375,-1.144531 1.640625,-1.71875 0.738281,0.625 1.132813,0.964844 1.1874996,1.015625 0.05078,0.042969 0.07813,0.089844 0.07813,0.140625 0,0.09375 -0.101561,0.167969 -0.2968744,0.21875 -0.292969,0.085937 -0.976562,0.585937 -2.046875,1.5 0.75,1.34375 1.742188,2.328125 2.9843734,2.953125 -0.593749,0.4882813 -1.0234354,0.898438 -1.2812484,1.234375 -1.28125,-1 -2.257812,-2.316406 -2.921875,-3.953125 V 0.25 c 0,0.40625 -0.058594,0.710938 -0.171875,0.921875 -0.105469,0.207031 -0.3125,0.359375 -0.625,0.453125 -0.304687,0.101563 -0.773437,0.164063 -1.40625,0.1875 -0.03125,-0.585937 -0.199219,-1.078125 -0.5,-1.484375 0.425781,0.039063 0.726563,0.0625 0.90625,0.0625 0.1875,0 0.304688,-0.027344 0.359375,-0.078125 0.050781,-0.042969 0.078125,-0.132812 0.078125,-0.265625 v -7.9375 h 1.171875 c 0.238281,0 0.359375,0.046875 0.359375,0.140625 0,0.042969 -0.023437,0.117187 -0.0625,0.21875 -0.042969,0.105469 -0.074219,0.210937 -0.09375,0.3125 -0.011719,0.09375 -0.015625,0.257812 -0.015625,0.484375 0.15625,0.730469 0.375,1.453125 0.6562498,2.171875 z m -2.15625,-0.90625 c -0.09375,1.417969 -0.367187,2.59375 -0.8125,3.53125 -0.449219,0.9375 -1.179687,1.8515625 -2.1875,2.734375 -0.4375,-0.386719 -0.8671872,-0.6875 -1.28125039,-0.90625 1.53125039,-0.9375 2.47265639,-2.320313 2.82812539,-4.15625 H 1.1792541 V -5.46875 Z m 0,0" id="path3985" />
      </g>
    </g>
  </g>
</svg>
